<svg xmlns="http://www.w3.org/2000/svg" width="1024" height="500" viewBox="0 0 1024 500">
  <defs>
    <linearGradient id="background" x1="0" y1="0" x2="1" y2="1">
      <stop offset="0" stop-color="#f6dfc7"/>
      <stop offset="0.52" stop-color="#edf0e8"/>
      <stop offset="1" stop-color="#cfe1d7"/>
    </linearGradient>
    <filter id="shadow" x="-30%" y="-30%" width="160%" height="160%">
      <feDropShadow dx="0" dy="18" stdDeviation="18" flood-color="#1f3f35" flood-opacity="0.2"/>
    </filter>
  </defs>
  <rect width="1024" height="500" fill="url(#background)"/>
  <circle cx="926" cy="70" r="150" fill="#fffdf7" opacity="0.22"/>
  <circle cx="80" cy="470" r="180" fill="#356859" opacity="0.08"/>

  <g fill="#173c31">
    <text x="86" y="118" font-family="Arial, 'Yu Gothic', sans-serif" font-size="26" font-weight="700" letter-spacing="8">
      MY TASKS
    </text>
    <text x="82" y="220" font-family="'Yu Mincho', 'Noto Serif JP', serif" font-size="76" font-weight="600">
      今日のToDo
    </text>
    <text x="88" y="286" font-family="Arial, 'Yu Gothic', sans-serif" font-size="30" fill="#536d63">
      今日やることを、迷わず整理
    </text>
  </g>

  <g transform="translate(676 70) rotate(5 130 170)" filter="url(#shadow)">
    <rect width="260" height="350" rx="48" fill="#fffdf7"/>
    <g transform="translate(44 62)">
      <circle cx="24" cy="26" r="23" fill="#e0ebe3"/>
      <path d="m11 26 10 10 20-24" fill="none" stroke="#356859" stroke-width="11" stroke-linecap="round" stroke-linejoin="round"/>
      <rect x="72" y="16" width="110" height="20" rx="10" fill="#356859"/>

      <circle cx="24" cy="104" r="23" fill="#e0ebe3"/>
      <path d="m11 104 10 10 20-24" fill="none" stroke="#356859" stroke-width="11" stroke-linecap="round" stroke-linejoin="round"/>
      <rect x="72" y="94" width="130" height="20" rx="10" fill="#718074"/>

      <circle cx="24" cy="182" r="23" fill="#e0ebe3"/>
      <rect x="72" y="172" width="94" height="20" rx="10" fill="#718074"/>
    </g>
  </g>
</svg>
